<mxfile host="Electron" modified="2024-04-24T13:41:33.126Z" agent="Mozilla/5.0 (Windows NT 10.0; Win64; x64) AppleWebKit/537.36 (KHTML, like Gecko) draw.io/24.2.5 Chrome/120.0.6099.109 Electron/28.1.0 Safari/537.36" etag="lptWJxu5jaXDo_G2uKsY" version="24.2.5" type="device">
  <diagram name="Pagina-1" id="lw_a0u_xxxvalduURZRV">
    <mxGraphModel dx="2607" dy="1535" grid="1" gridSize="10" guides="1" tooltips="1" connect="1" arrows="1" fold="1" page="1" pageScale="1" pageWidth="2336" pageHeight="1654" math="0" shadow="0">
      <root>
        <mxCell id="0" />
        <mxCell id="1" parent="0" />
        <mxCell id="HkoQyKhaJMlP7qIJVjD8-11" value="" style="rounded=1;whiteSpace=wrap;html=1;strokeWidth=2;fillWeight=4;hachureGap=8;hachureAngle=45;sketch=1;" vertex="1" parent="1">
          <mxGeometry x="805" y="700" width="310" height="220" as="geometry" />
        </mxCell>
        <mxCell id="HkoQyKhaJMlP7qIJVjD8-4" value="" style="ellipse;whiteSpace=wrap;html=1;strokeWidth=2;fillWeight=2;hachureGap=8;fillColor=#fff2cc;fillStyle=dots;sketch=1;strokeColor=#d6b656;" vertex="1" parent="1">
          <mxGeometry x="870" y="500" width="180" height="180" as="geometry" />
        </mxCell>
        <mxCell id="HkoQyKhaJMlP7qIJVjD8-5" value="&lt;font color=&quot;#c7a950&quot;&gt;BROKER&lt;/font&gt;" style="text;strokeColor=none;fillColor=none;html=1;fontSize=24;fontStyle=1;verticalAlign=middle;align=center;" vertex="1" parent="1">
          <mxGeometry x="910" y="515" width="100" height="40" as="geometry" />
        </mxCell>
        <mxCell id="HkoQyKhaJMlP7qIJVjD8-6" value="&lt;b style=&quot;&quot;&gt;&lt;font color=&quot;#4a4a4a&quot; style=&quot;font-size: 15px;&quot;&gt;DND?&amp;gt;Dice&amp;gt;...&lt;/font&gt;&lt;/b&gt;" style="rounded=1;whiteSpace=wrap;html=1;strokeWidth=2;fillWeight=4;hachureGap=8;hachureAngle=45;fillColor=#dae8fc;sketch=1;strokeColor=#6c8ebf;" vertex="1" parent="1">
          <mxGeometry x="890" y="555" width="140" height="40" as="geometry" />
        </mxCell>
        <mxCell id="HkoQyKhaJMlP7qIJVjD8-7" value="&lt;b style=&quot;&quot;&gt;&lt;font color=&quot;#4a4a4a&quot; style=&quot;font-size: 15px;&quot;&gt;DND!&amp;gt;Dice&amp;gt;...&lt;/font&gt;&lt;/b&gt;" style="rounded=1;whiteSpace=wrap;html=1;strokeWidth=2;fillWeight=4;hachureGap=8;hachureAngle=45;fillColor=#d5e8d4;sketch=1;strokeColor=#82b366;" vertex="1" parent="1">
          <mxGeometry x="890" y="605" width="140" height="40" as="geometry" />
        </mxCell>
        <mxCell id="HkoQyKhaJMlP7qIJVjD8-12" value="" style="rounded=1;whiteSpace=wrap;html=1;strokeWidth=2;fillWeight=4;hachureGap=8;hachureAngle=45;sketch=1;" vertex="1" parent="1">
          <mxGeometry x="820" y="720" width="95" height="180" as="geometry" />
        </mxCell>
        <mxCell id="HkoQyKhaJMlP7qIJVjD8-13" value="" style="rounded=1;whiteSpace=wrap;html=1;strokeWidth=2;fillWeight=4;hachureGap=8;hachureAngle=45;sketch=1;" vertex="1" parent="1">
          <mxGeometry x="965" y="720" width="140" height="180" as="geometry" />
        </mxCell>
        <mxCell id="HkoQyKhaJMlP7qIJVjD8-17" value="" style="edgeStyle=orthogonalEdgeStyle;rounded=0;orthogonalLoop=1;jettySize=auto;html=1;entryX=0;entryY=0.5;entryDx=0;entryDy=0;" edge="1" parent="1" source="HkoQyKhaJMlP7qIJVjD8-9" target="HkoQyKhaJMlP7qIJVjD8-13">
          <mxGeometry relative="1" as="geometry">
            <mxPoint x="955" y="810" as="targetPoint" />
          </mxGeometry>
        </mxCell>
        <mxCell id="HkoQyKhaJMlP7qIJVjD8-47" value="?" style="edgeLabel;html=1;align=center;verticalAlign=middle;resizable=0;points=[];" vertex="1" connectable="0" parent="HkoQyKhaJMlP7qIJVjD8-17">
          <mxGeometry x="0.0705" y="-1" relative="1" as="geometry">
            <mxPoint as="offset" />
          </mxGeometry>
        </mxCell>
        <mxCell id="HkoQyKhaJMlP7qIJVjD8-9" value="&lt;div&gt;&lt;b&gt;&lt;font style=&quot;font-size: 17px;&quot;&gt;REQUEST&lt;br&gt;&lt;br&gt;&lt;/font&gt;&lt;/b&gt;&lt;/div&gt;&lt;div&gt;&lt;b&gt;DND?&amp;gt;Dice&amp;gt;&lt;/b&gt;&lt;/div&gt;xD4&amp;gt;UID&amp;gt;&lt;br&gt;xD6&amp;gt;UID&amp;gt;&lt;div&gt;xD8&lt;span style=&quot;background-color: initial;&quot;&gt;&amp;gt;UID&amp;gt;&lt;/span&gt;&lt;/div&gt;&lt;div&gt;xD10&lt;span style=&quot;background-color: initial;&quot;&gt;&amp;gt;UID&amp;gt;&lt;/span&gt;&lt;/div&gt;&lt;div&gt;xD12&lt;span style=&quot;background-color: initial;&quot;&gt;&amp;gt;UID&amp;gt;&lt;/span&gt;&lt;/div&gt;&lt;div&gt;xD20&amp;gt;UID&amp;gt;&lt;/div&gt;" style="text;html=1;align=center;verticalAlign=middle;whiteSpace=wrap;rounded=0;" vertex="1" parent="1">
          <mxGeometry x="825" y="750" width="90" height="120" as="geometry" />
        </mxCell>
        <mxCell id="HkoQyKhaJMlP7qIJVjD8-10" value="&lt;div style=&quot;&quot;&gt;&lt;b style=&quot;&quot;&gt;&lt;font style=&quot;font-size: 17px;&quot;&gt;REPLY&lt;br&gt;&lt;br&gt;&lt;/font&gt;&lt;/b&gt;&lt;/div&gt;&lt;div style=&quot;&quot;&gt;&lt;b style=&quot;&quot;&gt;&lt;font style=&quot;font-size: 12px;&quot;&gt;DND!&amp;gt;Dice&amp;gt;&lt;/font&gt;&lt;/b&gt;&lt;/div&gt;xD4&amp;gt;UID&amp;gt;(1-4)&lt;br&gt;xD6&amp;gt;UID&amp;gt;(1-6)&lt;div&gt;xD8&lt;span style=&quot;background-color: initial;&quot;&gt;&amp;gt;UID&amp;gt;&lt;/span&gt;&lt;span style=&quot;background-color: initial;&quot;&gt;(1-8)&lt;/span&gt;&lt;/div&gt;&lt;div&gt;xD10&lt;span style=&quot;background-color: initial;&quot;&gt;&amp;gt;UID&amp;gt;&lt;/span&gt;&lt;span style=&quot;background-color: initial;&quot;&gt;(1-10)&lt;/span&gt;&lt;/div&gt;&lt;div&gt;xD12&lt;span style=&quot;background-color: initial;&quot;&gt;&amp;gt;UID&amp;gt;&lt;/span&gt;&lt;span style=&quot;background-color: initial;&quot;&gt;(1-12)&lt;/span&gt;&lt;/div&gt;&lt;div&gt;xD20&amp;gt;UID&amp;gt;&lt;span style=&quot;background-color: initial;&quot;&gt;(1-20)&lt;/span&gt;&lt;/div&gt;" style="text;html=1;align=center;verticalAlign=middle;whiteSpace=wrap;rounded=0;" vertex="1" parent="1">
          <mxGeometry x="975" y="750" width="120" height="120" as="geometry" />
        </mxCell>
        <mxCell id="HkoQyKhaJMlP7qIJVjD8-18" value="" style="ellipse;whiteSpace=wrap;html=1;strokeWidth=2;fillWeight=2;hachureGap=8;fillColor=#fad9d5;fillStyle=dots;sketch=1;strokeColor=#ae4132;" vertex="1" parent="1">
          <mxGeometry x="1210" y="415" width="180" height="180" as="geometry" />
        </mxCell>
        <mxCell id="HkoQyKhaJMlP7qIJVjD8-19" value="&lt;font color=&quot;#990000&quot;&gt;SERVICE&lt;/font&gt;" style="text;strokeColor=none;fillColor=none;html=1;fontSize=24;fontStyle=1;verticalAlign=middle;align=center;" vertex="1" parent="1">
          <mxGeometry x="1250" y="485" width="100" height="40" as="geometry" />
        </mxCell>
        <mxCell id="HkoQyKhaJMlP7qIJVjD8-20" value="" style="ellipse;whiteSpace=wrap;html=1;strokeWidth=2;fillWeight=2;hachureGap=8;fillColor=#b1ddf0;fillStyle=dots;sketch=1;strokeColor=#10739e;" vertex="1" parent="1">
          <mxGeometry x="600" y="210" width="180" height="180" as="geometry" />
        </mxCell>
        <mxCell id="HkoQyKhaJMlP7qIJVjD8-21" value="&lt;font color=&quot;#0066cc&quot;&gt;CLIENT 2&lt;/font&gt;" style="text;strokeColor=none;fillColor=none;html=1;fontSize=24;fontStyle=1;verticalAlign=middle;align=center;" vertex="1" parent="1">
          <mxGeometry x="640" y="280" width="100" height="40" as="geometry" />
        </mxCell>
        <mxCell id="HkoQyKhaJMlP7qIJVjD8-22" value="" style="ellipse;whiteSpace=wrap;html=1;strokeWidth=2;fillWeight=2;hachureGap=8;fillColor=#b0e3e6;fillStyle=dots;sketch=1;strokeColor=#0e8088;" vertex="1" parent="1">
          <mxGeometry x="500" y="510" width="180" height="180" as="geometry" />
        </mxCell>
        <mxCell id="HkoQyKhaJMlP7qIJVjD8-23" value="&lt;font color=&quot;#00cccc&quot;&gt;CLIENT 3&lt;/font&gt;" style="text;strokeColor=none;fillColor=none;html=1;fontSize=24;fontStyle=1;verticalAlign=middle;align=center;" vertex="1" parent="1">
          <mxGeometry x="540" y="580" width="100" height="40" as="geometry" />
        </mxCell>
        <mxCell id="HkoQyKhaJMlP7qIJVjD8-24" value="" style="ellipse;whiteSpace=wrap;html=1;strokeWidth=2;fillWeight=2;hachureGap=8;fillColor=#bac8d3;fillStyle=dots;sketch=1;strokeColor=#23445d;" vertex="1" parent="1">
          <mxGeometry x="880" y="140" width="180" height="180" as="geometry" />
        </mxCell>
        <mxCell id="HkoQyKhaJMlP7qIJVjD8-25" value="&lt;font color=&quot;#003366&quot;&gt;CLIENT 1&lt;/font&gt;" style="text;strokeColor=none;fillColor=none;html=1;fontSize=24;fontStyle=1;verticalAlign=middle;align=center;" vertex="1" parent="1">
          <mxGeometry x="920" y="210" width="100" height="40" as="geometry" />
        </mxCell>
        <mxCell id="HkoQyKhaJMlP7qIJVjD8-28" value="" style="endArrow=classic;html=1;rounded=0;exitX=0.358;exitY=0.988;exitDx=0;exitDy=0;exitPerimeter=0;entryX=0.43;entryY=0.01;entryDx=0;entryDy=0;entryPerimeter=0;" edge="1" parent="1" source="HkoQyKhaJMlP7qIJVjD8-24" target="HkoQyKhaJMlP7qIJVjD8-4">
          <mxGeometry relative="1" as="geometry">
            <mxPoint x="860" y="520" as="sourcePoint" />
            <mxPoint x="1020" y="520" as="targetPoint" />
          </mxGeometry>
        </mxCell>
        <mxCell id="HkoQyKhaJMlP7qIJVjD8-29" value="&lt;font style=&quot;font-size: 20px;&quot;&gt;?&lt;/font&gt;" style="edgeLabel;resizable=0;html=1;;align=center;verticalAlign=middle;" connectable="0" vertex="1" parent="HkoQyKhaJMlP7qIJVjD8-28">
          <mxGeometry relative="1" as="geometry" />
        </mxCell>
        <mxCell id="HkoQyKhaJMlP7qIJVjD8-33" value="" style="endArrow=classic;html=1;rounded=0;exitX=0.673;exitY=0.008;exitDx=0;exitDy=0;exitPerimeter=0;entryX=0.607;entryY=1.013;entryDx=0;entryDy=0;entryPerimeter=0;" edge="1" parent="1">
          <mxGeometry relative="1" as="geometry">
            <mxPoint x="976.8799999999999" y="499.99999999999994" as="sourcePoint" />
            <mxPoint x="975" y="320.90000000000003" as="targetPoint" />
          </mxGeometry>
        </mxCell>
        <mxCell id="HkoQyKhaJMlP7qIJVjD8-34" value="&lt;font style=&quot;font-size: 20px;&quot;&gt;!&lt;/font&gt;" style="edgeLabel;resizable=0;html=1;;align=center;verticalAlign=middle;" connectable="0" vertex="1" parent="HkoQyKhaJMlP7qIJVjD8-33">
          <mxGeometry relative="1" as="geometry" />
        </mxCell>
        <mxCell id="HkoQyKhaJMlP7qIJVjD8-35" value="" style="endArrow=classic;html=1;rounded=0;entryX=0.044;entryY=0.252;entryDx=0;entryDy=0;entryPerimeter=0;exitX=0.723;exitY=0.953;exitDx=0;exitDy=0;exitPerimeter=0;" edge="1" parent="1" source="HkoQyKhaJMlP7qIJVjD8-20" target="HkoQyKhaJMlP7qIJVjD8-4">
          <mxGeometry relative="1" as="geometry">
            <mxPoint x="805" y="350" as="sourcePoint" />
            <mxPoint x="808" y="534" as="targetPoint" />
          </mxGeometry>
        </mxCell>
        <mxCell id="HkoQyKhaJMlP7qIJVjD8-36" value="&lt;font style=&quot;font-size: 20px;&quot;&gt;?&lt;/font&gt;" style="edgeLabel;resizable=0;html=1;;align=center;verticalAlign=middle;" connectable="0" vertex="1" parent="HkoQyKhaJMlP7qIJVjD8-35">
          <mxGeometry relative="1" as="geometry" />
        </mxCell>
        <mxCell id="HkoQyKhaJMlP7qIJVjD8-37" value="" style="endArrow=classic;html=1;rounded=0;exitX=0.14;exitY=0.123;exitDx=0;exitDy=0;exitPerimeter=0;" edge="1" parent="1" source="HkoQyKhaJMlP7qIJVjD8-4" target="HkoQyKhaJMlP7qIJVjD8-20">
          <mxGeometry relative="1" as="geometry">
            <mxPoint x="837.8799999999999" y="532" as="sourcePoint" />
            <mxPoint x="836" y="352.90000000000003" as="targetPoint" />
          </mxGeometry>
        </mxCell>
        <mxCell id="HkoQyKhaJMlP7qIJVjD8-38" value="&lt;font style=&quot;font-size: 20px;&quot;&gt;!&lt;/font&gt;" style="edgeLabel;resizable=0;html=1;;align=center;verticalAlign=middle;" connectable="0" vertex="1" parent="HkoQyKhaJMlP7qIJVjD8-37">
          <mxGeometry relative="1" as="geometry" />
        </mxCell>
        <mxCell id="HkoQyKhaJMlP7qIJVjD8-39" value="" style="endArrow=classic;html=1;rounded=0;entryX=0.04;entryY=0.671;entryDx=0;entryDy=0;entryPerimeter=0;" edge="1" parent="1" target="HkoQyKhaJMlP7qIJVjD8-4">
          <mxGeometry relative="1" as="geometry">
            <mxPoint x="680" y="630" as="sourcePoint" />
            <mxPoint x="733" y="717" as="targetPoint" />
          </mxGeometry>
        </mxCell>
        <mxCell id="HkoQyKhaJMlP7qIJVjD8-40" value="&lt;font style=&quot;font-size: 20px;&quot;&gt;?&lt;/font&gt;" style="edgeLabel;resizable=0;html=1;;align=center;verticalAlign=middle;" connectable="0" vertex="1" parent="HkoQyKhaJMlP7qIJVjD8-39">
          <mxGeometry relative="1" as="geometry" />
        </mxCell>
        <mxCell id="HkoQyKhaJMlP7qIJVjD8-41" value="" style="endArrow=classic;html=1;rounded=0;exitX=-0.002;exitY=0.403;exitDx=0;exitDy=0;exitPerimeter=0;entryX=0.994;entryY=0.389;entryDx=0;entryDy=0;entryPerimeter=0;" edge="1" parent="1" source="HkoQyKhaJMlP7qIJVjD8-4" target="HkoQyKhaJMlP7qIJVjD8-22">
          <mxGeometry relative="1" as="geometry">
            <mxPoint x="762.8799999999999" y="715" as="sourcePoint" />
            <mxPoint x="761" y="535.9000000000001" as="targetPoint" />
          </mxGeometry>
        </mxCell>
        <mxCell id="HkoQyKhaJMlP7qIJVjD8-42" value="&lt;font style=&quot;font-size: 20px;&quot;&gt;!&lt;/font&gt;" style="edgeLabel;resizable=0;html=1;;align=center;verticalAlign=middle;" connectable="0" vertex="1" parent="HkoQyKhaJMlP7qIJVjD8-41">
          <mxGeometry relative="1" as="geometry" />
        </mxCell>
        <mxCell id="HkoQyKhaJMlP7qIJVjD8-43" value="" style="endArrow=classic;html=1;rounded=0;exitX=0;exitY=0.5;exitDx=0;exitDy=0;entryX=0.994;entryY=0.326;entryDx=0;entryDy=0;entryPerimeter=0;" edge="1" parent="1" source="HkoQyKhaJMlP7qIJVjD8-18" target="HkoQyKhaJMlP7qIJVjD8-4">
          <mxGeometry relative="1" as="geometry">
            <mxPoint x="1105" y="461" as="sourcePoint" />
            <mxPoint x="1108" y="645" as="targetPoint" />
          </mxGeometry>
        </mxCell>
        <mxCell id="HkoQyKhaJMlP7qIJVjD8-44" value="&lt;font style=&quot;font-size: 20px;&quot;&gt;?&lt;/font&gt;" style="edgeLabel;resizable=0;html=1;;align=center;verticalAlign=middle;" connectable="0" vertex="1" parent="HkoQyKhaJMlP7qIJVjD8-43">
          <mxGeometry relative="1" as="geometry" />
        </mxCell>
        <mxCell id="HkoQyKhaJMlP7qIJVjD8-45" value="" style="endArrow=classic;html=1;rounded=0;exitX=1;exitY=0.611;exitDx=0;exitDy=0;exitPerimeter=0;entryX=0.059;entryY=0.722;entryDx=0;entryDy=0;entryPerimeter=0;" edge="1" parent="1" source="HkoQyKhaJMlP7qIJVjD8-4" target="HkoQyKhaJMlP7qIJVjD8-18">
          <mxGeometry relative="1" as="geometry">
            <mxPoint x="1137.8799999999999" y="643" as="sourcePoint" />
            <mxPoint x="1136" y="463.90000000000003" as="targetPoint" />
          </mxGeometry>
        </mxCell>
        <mxCell id="HkoQyKhaJMlP7qIJVjD8-46" value="&lt;font style=&quot;font-size: 20px;&quot;&gt;!&lt;/font&gt;" style="edgeLabel;resizable=0;html=1;;align=center;verticalAlign=middle;" connectable="0" vertex="1" parent="HkoQyKhaJMlP7qIJVjD8-45">
          <mxGeometry relative="1" as="geometry" />
        </mxCell>
        <mxCell id="HkoQyKhaJMlP7qIJVjD8-51" value="" style="edgeStyle=orthogonalEdgeStyle;rounded=0;orthogonalLoop=1;jettySize=auto;html=1;entryX=0;entryY=0.5;entryDx=0;entryDy=0;" edge="1" parent="1">
          <mxGeometry relative="1" as="geometry">
            <mxPoint x="965" y="830" as="sourcePoint" />
            <mxPoint x="915" y="830" as="targetPoint" />
          </mxGeometry>
        </mxCell>
        <mxCell id="HkoQyKhaJMlP7qIJVjD8-52" value="!" style="edgeLabel;html=1;align=center;verticalAlign=middle;resizable=0;points=[];" vertex="1" connectable="0" parent="HkoQyKhaJMlP7qIJVjD8-51">
          <mxGeometry x="0.0705" y="-1" relative="1" as="geometry">
            <mxPoint as="offset" />
          </mxGeometry>
        </mxCell>
      </root>
    </mxGraphModel>
  </diagram>
</mxfile>
